<?xml version="1.0" standalone="no"?>
<!DOCTYPE svg PUBLIC "-//W3C//DTD SVG 20010904//EN"
 "http://www.w3.org/TR/2001/REC-SVG-20010904/DTD/svg10.dtd">
<svg version="1.0" xmlns="http://www.w3.org/2000/svg"
 width="512.000000pt" height="512.000000pt" viewBox="0 0 512.000000 512.000000"
 preserveAspectRatio="xMidYMid meet">
<metadata>
Created by potrace 1.14, written by Peter Selinger 2001-2017
</metadata>
<g transform="translate(0.000000,512.000000) scale(0.100000,-0.100000)"
fill="#000000" stroke="none">
<path d="M565 4813 c-13 -8 -29 -22 -35 -33 -6 -10 -10 -90 -10 -184 0 -160
-1 -166 -24 -193 l-24 -28 -158 -1 c-199 -2 -181 0 -209 -29 l-25 -24 0 -1745
c0 -1295 3 -1752 12 -1770 6 -14 20 -29 32 -33 12 -4 94 -7 184 -8 219 -2 205
13 212 -230 5 -175 6 -186 28 -207 l23 -23 855 0 856 0 24 28 c23 27 24 33 24
198 0 97 -4 179 -10 189 -23 44 -18 43 -884 46 -456 1 -839 5 -852 8 -53 14
-51 -73 -50 1799 l1 1739 28 24 c15 13 36 24 45 25 9 0 390 1 845 2 l829 2 24
28 c23 27 24 33 24 202 0 169 -1 175 -24 202 l-24 28 -846 0 c-673 0 -851 -2
-871 -12z"/>
<path d="M2835 4808 c-56 -15 -60 -27 -63 -220 l-3 -178 30 -30 29 -30 844 0
c680 -1 846 -3 860 -14 44 -33 43 -10 42 -1115 l-1 -1052 -26 -26 -26 -27
-621 0 -620 0 -28 27 -27 27 0 846 0 846 -28 24 c-27 23 -33 24 -198 24 l-171
0 -29 -29 -29 -29 0 -1735 c0 -1185 3 -1744 10 -1764 6 -17 21 -35 33 -40 28
-13 333 -14 365 -2 46 18 47 29 46 665 0 330 4 611 9 626 16 51 21 51 684 52
l615 1 24 28 c23 27 24 33 24 192 0 99 4 174 11 188 18 41 49 47 220 47 l161
0 28 28 28 28 0 1059 c0 582 -4 1069 -9 1081 -18 49 -49 57 -212 59 -192 2
-182 1 -207 27 -19 20 -20 34 -20 195 0 171 0 174 -25 198 -13 14 -34 25 -47
26 -113 5 -1654 2 -1673 -3z"/>
</g>
</svg>
